<svg width="47" height="43" viewBox="0 0 47 43" fill="none" xmlns="http://www.w3.org/2000/svg">
<path d="M2.5 2.5H15C17.2101 2.5 19.3298 3.37797 20.8926 4.94078C22.4554 6.50358 23.3333 8.6232 23.3333 10.8333V40C23.3333 38.3424 22.6749 36.7527 21.5028 35.5806C20.3307 34.4085 18.7409 33.75 17.0833 33.75H2.5V2.5Z" stroke="#2B2B2B" stroke-width="5" stroke-linecap="round" stroke-linejoin="round"/>
<path d="M44.1667 2.5H31.6667C29.4565 2.5 27.3369 3.37797 25.7741 4.94078C24.2113 6.50358 23.3333 8.6232 23.3333 10.8333V40C23.3333 38.3424 23.9918 36.7527 25.1639 35.5806C26.336 34.4085 27.9257 33.75 29.5833 33.75H44.1667V2.5Z" stroke="#2B2B2B" stroke-width="5" stroke-linecap="round" stroke-linejoin="round"/>
</svg>
