<svg width="150" height="150" viewBox="0 0 150 150" fill="none" xmlns="http://www.w3.org/2000/svg">
<circle cx="75" cy="75" r="75" fill="#2BC765"/>
<path d="M118.75 70.9749V74.9999C118.745 84.4342 115.69 93.6141 110.041 101.17C104.392 108.727 96.4519 114.254 87.4047 116.929C78.3575 119.604 68.688 119.283 59.8383 116.014C50.9886 112.744 43.4329 106.702 38.298 98.7871C33.163 90.8725 30.7241 81.5102 31.3448 72.0963C31.9656 62.6824 35.6128 53.7213 41.7425 46.5496C47.8722 39.3779 56.1559 34.3797 65.3583 32.3005C74.5607 30.2214 84.1887 31.1726 92.8063 35.0124" stroke="white" stroke-width="10" stroke-linecap="round" stroke-linejoin="round"/>
<path d="M118.75 40L75 83.7938L61.875 70.6688" stroke="white" stroke-width="10" stroke-linecap="round" stroke-linejoin="round"/>
</svg>
