<svg width="50" height="43" viewBox="0 0 50 43" fill="none" xmlns="http://www.w3.org/2000/svg">
<path d="M35.4167 40V35.8333C35.4167 33.6232 34.5387 31.5036 32.9759 29.9408C31.4131 28.378 29.2935 27.5 27.0834 27.5H10.4167C8.20657 27.5 6.08695 28.378 4.52415 29.9408C2.96135 31.5036 2.08337 33.6232 2.08337 35.8333V40" stroke="#940000" stroke-width="5" stroke-linecap="round" stroke-linejoin="round"/>
<path d="M18.75 19.1667C23.3523 19.1667 27.0833 15.4357 27.0833 10.8333C27.0833 6.23096 23.3523 2.5 18.75 2.5C14.1476 2.5 10.4166 6.23096 10.4166 10.8333C10.4166 15.4357 14.1476 19.1667 18.75 19.1667Z" stroke="#940000" stroke-width="5" stroke-linecap="round" stroke-linejoin="round"/>
<path d="M47.9166 40.0002V35.8335C47.9152 33.9871 47.3007 32.1934 46.1695 30.7342C45.0382 29.2749 43.4544 28.2326 41.6666 27.771" stroke="#940000" stroke-width="5" stroke-linecap="round" stroke-linejoin="round"/>
<path d="M33.3334 2.771C35.1259 3.22996 36.7147 4.27246 37.8493 5.73414C38.9839 7.19583 39.5997 8.99356 39.5997 10.8439C39.5997 12.6943 38.9839 14.492 37.8493 15.9537C36.7147 17.4154 35.1259 18.4579 33.3334 18.9168" stroke="#940000" stroke-width="5" stroke-linecap="round" stroke-linejoin="round"/>
</svg>
